<svg xmlns="http://www.w3.org/2000/svg" width="64" height="64" viewBox="0 0 16.933 16.933" id="handshake">
  <path fill="#ffca28" d="M 32.001953 3 C 25.025327 3.0000027 19.369133 8.6593389 19.369141 15.640625 C 19.369154 22.621896 25.025342 28.281247 32.001953 28.28125 C 35.675724 28.281253 39.166765 26.680123 41.566406 23.896484 L 44.589844 16.695312 C 44.619286 16.344698 44.632752 15.992469 44.632812 15.640625 C 44.63282 8.6593405 38.978579 3.0000048 32.001953 3 z " transform="scale(.26458)"></path>
  <path fill="#ecb200" d="M 24.164062 5.7265625 A 12.632294 12.640731 0 0 0 19.369141 15.640625 A 12.632294 12.640731 0 0 0 32.001953 28.28125 A 12.632294 12.640731 0 0 0 41.566406 23.898438 L 41.652344 23.693359 A 12.632294 12.640731 0 0 1 34.001953 26.28125 A 12.632294 12.640731 0 0 1 21.369141 13.640625 A 12.632294 12.640731 0 0 1 24.164062 5.7265625 z " transform="scale(.26458)"></path>
  <path fill="#a7c305" d="M 13.08773,5.5336394 A 1.296203,1.2970477 0 0 1 11.791527,6.8306872 1.296203,1.2970477 0 0 1 10.495324,5.5336394 1.296203,1.2970477 0 0 1 11.791527,4.2365917 1.296203,1.2970477 0 0 1 13.08773,5.5336394 Z"></path>
  <path fill="#549ad4" d="m 6.579093,13.120893 h 1.3067083 c 0.2413054,0 0.4355693,0.176237 0.4355693,0.395151 v 4.14909 c 0,0.218914 -0.1942639,0.395151 -0.4355693,0.395151 H 6.579093 c -0.2413054,0 -0.4355693,-0.176237 -0.4355693,-0.395151 v -4.14909 c 0,-0.218914 0.1942639,-0.395151 0.4355693,-0.395151 z" transform="matrix(.86732 -.49775 .50225 .86472 0 0)"></path>
  <path fill="#549ad4" d="m 7.1258407,4.8622675 h 1.306708 c 0.2413054,0 0.4355693,0.1936812 0.4355693,0.4342629 v 4.5597603 c 0,0.2405813 -0.1942639,0.4342633 -0.4355693,0.4342633 h -1.306708 c -0.2413054,0 -0.4355693,-0.193682 -0.4355693,-0.4342633 V 5.2965304 c 0,-0.2405817 0.1942639,-0.4342629 0.4355693,-0.4342629 z" transform="matrix(.86732 .49775 -.50225 .86472 0 0)"></path>
  <path fill="#3588cb" d="m 3.489664,7.69392 c -0.139578,0.01 -0.271712,0.086 -0.347233,0.21598 l -2.290082,3.94304 c -0.120833,0.20804 -0.04962,0.47204 0.159665,0.59215 l 1.133156,0.65055 c 0.20929,0.1201 0.47494,0.0494 0.595773,-0.15864 l 0.06769,-0.11626 -1.008112,-0.5782 C 1.591232,12.12243 1.520023,11.85791 1.640856,11.64987 L 3.863765,7.8231 3.738204,7.7513 C 3.659724,7.7063 3.57341,7.6881 3.489664,7.6939 Z"></path>
  <path fill="#ffc6a0" d="m 4.870657,9.33953 1.598513,0.31779 1.997492,1.16909 4.219707,2.47 c 0,0 0.109038,0.20586 0.109606,0.32043 5.67e-4,0.11457 -0.03616,0.23593 -0.109606,0.33111 -0.07344,0.0952 -0.186502,0.17552 -0.312431,0.2029 -0.125929,0.0274 -0.272334,-0.0157 -0.396326,-0.059 -0.123991,-0.0433 -0.335352,-0.19361 -0.335352,-0.19361 0,0 0.0642,0.27703 0.03658,0.41216 -0.02498,0.12218 -0.0879,0.24219 -0.176667,0.32978 -0.06387,0.063 -0.150475,0.10915 -0.238984,0.12397 -0.132103,0.0221 -0.397517,-0.0587 -0.397517,-0.0587 -0.08424,0.16519 -0.09529,0.39912 -0.178194,0.5236 -0.08291,0.12447 -0.08159,0.15974 -0.25799,0.22795 -0.176395,0.0682 -0.498271,-0.0347 -0.790394,0.0113 0,0 -0.01875,0.29227 -0.07426,0.39197 -0.0555,0.0997 -0.09918,0.12473 -0.210584,0.19309 -0.111405,0.0684 -0.404637,0.0563 -0.523589,-0.0123 L 8.169551,15.66166 4.762218,14.1779 3.583371,13.31221 2.907663,12.80846 Z"></path>
  <path fill="#f95" d="m 8.142313,10.64036 c -0.617377,0.87539 -1.842224,1.70729 -2.069186,1.084 -0.1577,-0.43308 0.562634,-1.71165 0.97144,-2.14526 0.521136,-0.55275 2.175762,-0.67317 3.402191,-0.45637 1.226436,0.21681 1.83966,-0.2168 1.83966,-0.2168 l 1.74488,3.03525 -1.301358,1.32421"></path>
  <path fill="#f95" d="m 13.961334,9.0244989 c 0.301631,0 0.544461,0.2421016 0.544461,0.5428286 V 10.00159 c 0,0.300727 -0.24283,0.542829 -0.544461,0.542829 -0.301632,0 -0.544462,-0.242102 -0.544462,-0.542829 V 9.5673275 c 0,-0.300727 0.24283,-0.5428286 0.544462,-0.5428286 z" transform="matrix(.86732 .49775 -.50225 .86472 0 0)"></path>
  <path fill="#ff8a3c" d="m 7.265302,14.68091 c -0.174472,0.0121 -0.33964,0.10771 -0.434041,0.27024 L 6.613208,15.3268 c -0.151042,0.26005 -0.06164,0.59032 0.199968,0.74045 0.172508,0.099 0.374635,0.0924 0.536351,0.003 -0.0023,-0.001 -0.0049,-0.002 -0.0072,-0.003 C 7.080712,15.91712 6.991314,15.58685 7.142355,15.3268 l 0.218054,-0.37565 c 0.05144,-0.0886 0.125224,-0.1554 0.208753,-0.20152 -0.09623,-0.0534 -0.201635,-0.0758 -0.303829,-0.0687 z"></path>
  <path fill="#f95" d="m 12.872405,8.8073664 c 0.301632,0 0.544462,0.2421015 0.544462,0.5428285 v 0.8685261 c 0,0.300727 -0.24283,0.542828 -0.544462,0.542828 -0.301631,0 -0.544461,-0.242101 -0.544461,-0.542828 V 9.3501949 c 0,-0.300727 0.24283,-0.5428285 0.544461,-0.5428285 z" transform="matrix(.86732 .49775 -.50225 .86472 0 0)"></path>
  <path fill="#ff8a3c" d="m 6.43029,13.95131 c -0.174471,0.0121 -0.33964,0.10771 -0.434041,0.27024 l -0.436107,0.75079 c -0.151042,0.26004 -0.06216,0.59031 0.199452,0.74045 0.172508,0.099 0.374635,0.0929 0.53635,0.004 -0.0024,-10e-4 -0.0048,-0.002 -0.0072,-0.004 C 6.027129,15.56265 5.938247,15.23238 6.089288,14.97234 l 0.436108,-0.75079 c 0.05152,-0.0887 0.125061,-0.1554 0.208753,-0.20152 -0.09634,-0.0536 -0.201481,-0.0758 -0.303829,-0.0687 z"></path>
  <path fill="#f95" d="M11.783493 8.5902262c.301631 0 .544461.2421015.544461.5428285v1.3027883c0 .300727-.24283.542829-.544461.542829-.301632 0-.544462-.242102-.544462-.542829V9.1330547c0-.300727.24283-.5428285.544462-.5428285zM10.694557 9.2416315c.301631 0 .544461.2421015.544461.5428286v.2171319c0 .300727-.24283.542828-.544461.542828-.301632 0-.544462-.242101-.544462-.542828V9.7844601c0-.3007271.24283-.5428286.544462-.5428286z" transform="matrix(.86732 .49775 -.50225 .86472 0 0)"></path>
  <path fill="#ff8a3c" d="M 9.47116,9.02497 C 8.463968,8.99327 7.435517,9.16432 7.044665,9.57889 6.635859,10.0125 5.91554,11.29119 6.07324,11.72428 c 0.08906,0.24459 0.332554,0.26296 0.631943,0.14468 -0.043,-0.0349 -0.07937,-0.0803 -0.102827,-0.14468 C 6.444656,11.29119 7.164975,10.0125 7.573781,9.57889 7.8988,9.23415 8.664908,9.058 9.492862,9.02652 c -0.0073,-2.5e-4 -0.01439,-10e-4 -0.0217,-0.002 z"></path>
  <path fill="#ffaf7a" d="m 4.870843,9.33965 -1.963001,3.46869 0.675347,0.5038 0.296078,0.21753 0.0098,-0.0165 c 0.100787,-0.17353 0.282375,-0.26839 0.469694,-0.26921 l -0.07441,-0.0548 -0.675864,-0.5038 1.829689,-3.23307 z m 2.960779,5.74688 c 0.0343,0.13178 0.01868,0.27612 -0.05477,0.40407 l 0.392704,0.17103 0.660879,0.37927 c 0.118952,0.0687 0.412543,0.0808 0.523949,0.0124 0.08391,-0.0515 0.127908,-0.0868 0.168966,-0.13951 L 8.870739,15.53866 Z"></path>
  <path fill="#ff8a3c" d="M5.594762 13.22171c-.174472.0121-.33964.10772-.434041.27024l-.654162 1.12644c-.151041.26004-.06216.59031.199452.74045.172509.099.374635.0924.536351.003-.0023-.001-.0049-.002-.0072-.003C4.973547 15.2087 4.884665 14.87843 5.035707 14.61839l.654161-1.12644c.05144-.0886.124708-.15591.208237-.20203-.09607-.0532-.201317-.0753-.303312-.0682zM4.323125 13.2429c-.174472.0121-.339639.10771-.43404.27024l-.109028.18757c-.151041.26004-.06216.59031.199453.74045.172408.0989.37468.0922.53635.003-.0023-.001-.0049-.002-.0072-.003C4.247044 14.29102 4.158162 13.96075 4.309204 13.70071L4.418231 13.51314C4.469691 13.42454 4.542911 13.35722 4.626467 13.3111 4.530397 13.2579 4.42515 13.2358 4.323156 13.2429z"></path>
  <path fill="#3588cb" d="m 13.674638,7.35754 c -0.08163,-0.002 -0.166439,0.018 -0.244922,0.063 l -1.133674,0.65054 c -0.209289,0.12011 -0.28925,0.36927 -0.1793,0.55856 l 2.083912,3.58754 c 0.109951,0.1893 0.366849,0.24516 0.576138,0.12505 l 0.120395,-0.0693 -2.012606,-3.46559 C 12.77463,8.61804 12.855111,8.36889 13.064397,8.24878 L 14.077159,7.66799 14.005849,7.54553 C 13.937129,7.42722 13.810688,7.36108 13.674634,7.35745 Z"></path>
  <path fill="#94ac04" d="M 11.178387,4.39212 A 1.296203,1.2970478 0 0 0 10.495289,5.53354 1.296203,1.2970478 0 0 0 11.791728,6.83049 1.296203,1.2970478 0 0 0 12.933669,6.14584 1.296203,1.2970478 0 0 1 12.320844,6.30138 1.296203,1.2970478 0 0 1 11.024406,5.00443 1.296203,1.2970478 0 0 1 11.178387,4.39212 Z"></path>
  <path d="m 8.466665,0.52917 c -1.992072,10e-6 -3.607189,1.61923 -3.607189,3.60924 -1e-6,1.99002 1.615294,3.60873 3.607189,3.60873 0.902107,0 1.771506,-0.34018 2.425462,-0.93835 0.254535,0.1808 0.56423,0.28626 0.898567,0.28626 0.868246,0 1.562547,-0.70332 1.562547,-1.56254 0,-0.76493 -0.554078,-1.40397 -1.282487,-1.53516 C 11.996384,2.07251 10.408385,0.52918 8.466665,0.52917 Z m 0,0.52963 c 1.654401,0 3.000576,1.31257 3.074973,2.93287 -0.749487,0.12188 -1.311424,0.768 -1.311424,1.54084 0,0.33393 0.111978,0.6625 0.287811,0.90269 -0.56384,0.50228 -1.289508,0.78282 -2.05136,0.78282 -1.694055,0 -3.077557,-1.37536 -3.077556,-3.07961 0,-1.70424 1.384033,-3.0796 3.077556,-3.07961 z M 8.203107,2.28031 v 0.2966 C 7.739968,2.69156 7.40705,3.10836 7.410465,3.5876 c 0.0026,0.36025 0.187945,0.5665 0.394254,0.66811 0.188087,0.0926 0.436108,0.1197 0.634526,0.14054 0.261681,0.0275 0.374266,0.0469 0.457294,0.0879 0.08303,0.0409 0.101276,0.0984 0.101276,0.19325 -8e-6,0.28493 -0.231686,0.51024 -0.5255,0.51361 C 8.185555,5.17951 8.024144,4.98892 7.95095,4.75542 7.844415,4.41928 7.339901,4.57775 7.447152,4.91353 7.575124,5.31462 7.83499,5.57963 8.203107,5.68292 v 0.30073 c 0.0077,0.345 0.521461,0.345 0.529116,0 V 5.68809 C 9.192329,5.57094 9.525369,5.16284 9.525381,4.6774 9.525381,4.33678 9.362254,4.12338 9.130611,4.00929 8.936755,3.91379 8.694503,3.88958 8.496084,3.86874 8.297666,3.84794 8.140582,3.83074 8.039308,3.78094 7.979098,3.75124 7.939578,3.71874 7.939578,3.58769 c 0,-0.28493 0.226509,-0.51024 0.520332,-0.51361 0.253584,0.0102 0.4354,0.15145 0.524466,0.43558 C 9.082646,3.83547 9.594392,3.70284 9.488174,3.35155 9.374629,2.98932 9.128684,2.68947 8.732219,2.58268 V 2.2804 C 8.732219,2.12052 8.599972,2.01946 8.467663,2.019415 8.335353,2.01937 8.203107,2.12353 8.203107,2.28031 Z m 3.587554,2.22135 c 0.565567,0 1.032914,0.45739 1.032914,1.03085 0,0.57345 -0.465959,1.03342 -1.032914,1.03342 -0.566955,0 -1.031364,-0.45997 -1.031364,-1.03342 0,-0.57346 0.465797,-1.03085 1.031364,-1.03085 z M 11.919323,5.193 11.702819,5.41932 11.628409,5.34702 C 11.389798,5.10721 11.008303,5.4484 11.255341,5.72008 l 0.261974,0.26249 c 0.104613,0.10609 0.275124,0.10551 0.377719,-5.3e-4 l 0.405105,-0.42215 c 0.167312,-0.17163 0.03639,-0.45846 -0.203068,-0.44799 -0.0683,0.003 -0.130676,0.0315 -0.177748,0.0811 z m 1.37808,1.9987 -1.134707,0.65158 c -0.329349,0.18901 -0.463453,0.59407 -0.274893,0.91871 l 0.01809,0.0315 c -0.03882,0.0159 -0.0889,0.0303 -0.14623,0.0455 -0.271415,0.072 -0.691501,0.12508 -1.267503,0.0232 -0.641566,-0.11341 -1.379846,-0.13742 -2.041025,-0.062 -0.66118,0.0754 -1.272909,0.2512 -1.599234,0.59732 -0.01511,0.016 -0.03576,0.0384 -0.05115,0.0558 L 5.249572,9.14432 5.260942,9.12522 C 5.45678,8.78805 5.337752,8.36349 5.005685,8.17292 L 3.870978,7.52134 C 3.538906,7.33077 3.109415,7.44084 2.913505,7.77815 l -2.2906,3.94304 c -0.193738,0.33556 -0.07681,0.76224 0.255258,0.95282 l 1.134706,0.65106 c 0.304388,0.17468 0.690505,0.0964 0.905802,-0.1793 l 0.613341,0.45729 c -0.199212,0.38768 -0.05716,0.85331 0.315196,1.06701 0.104661,0.0601 0.215758,0.0948 0.329665,0.10438 -0.04626,0.31719 0.09653,0.63948 0.395804,0.81227 0.23501,0.13487 0.512142,0.14052 0.74407,0.0351 0.06864,0.13086 0.173175,0.24131 0.310029,0.31985 0.235308,0.13504 0.511426,0.13967 0.743037,0.0336 0.06875,0.13131 0.174188,0.24284 0.311062,0.32139 0.384393,0.2206 0.881651,0.0919 1.107321,-0.29659 l 0.109543,-0.18912 c 0.273271,0.15678 0.564154,0.32294 0.801426,0.45884 0.391617,0.22475 0.882686,0.0887 1.105254,-0.29452 0.05126,-0.0883 0.08353,-0.17773 0.09818,-0.27334 0.36917,0.15501 0.807569,0.0142 1.013278,-0.34 0.06071,-0.10452 0.09623,-0.21378 0.105927,-0.3276 0.319074,0.0469 0.646892,-0.10165 0.817444,-0.39528 0.05117,-0.0881 0.08453,-0.17687 0.09921,-0.27231 0.369225,0.15519 0.806487,0.0137 1.012245,-0.34051 0.184921,-0.32029 0.08859,-0.61722 0.05529,-0.69395 l 0.974525,-0.96677 c 0.193421,0.31056 0.606055,0.39124 0.928537,0.20617 l 1.134707,-0.65158 c 0.326239,-0.18722 0.463452,-0.59407 0.274892,-0.91871 L 14.235258,7.41437 C 14.117408,7.21147 13.905913,7.10118 13.685464,7.093495 13.553192,7.0885 13.417782,7.1226 13.297403,7.1917 Z m 2.562388,4.07323 c 0.03302,0.0569 0.0066,0.14698 -0.08164,0.1979 l -1.134707,0.65106 c -0.08912,0.0512 -0.182062,0.0256 -0.213403,-0.0284 -0.718199,-1.24395 -1.45499,-2.50526 -2.083396,-3.58702 -0.03167,-0.0545 -0.0061,-0.14753 0.08164,-0.1979 l 1.135224,-0.65106 c 0.02439,-0.014 0.04587,-0.0212 0.07596,-0.0269 0.05907,-0.009 0.113423,0.0148 0.136927,0.0553 z M 3.604859,7.97912 4.743183,8.63328 c 0.07317,0.0422 0.108209,0.1435 0.05891,0.22839 l -2.290599,3.94355 c -0.04606,0.0798 -0.146014,0.11165 -0.232522,0.062 L 1.144267,12.21616 c -0.0795,-0.0456 -0.11131,-0.1466 -0.06201,-0.23149 L 3.372339,8.04163 c 0.03698,-0.0637 0.100843,-0.0899 0.165863,-0.084705 0.022017,0.003 0.045027,0.00999 0.066657,0.022195 z m 10.095579,3.91826 -1.038597,1.03084 c -1.457552,-0.83747 -2.926601,-1.6788 -4.388463,-2.51691 -0.118169,-0.0681 -0.268734,-0.0352 -0.347749,0.076 -0.293053,0.41552 -0.725593,0.81228 -1.09337,1.02619 -0.200735,0.11675 -0.352619,0.16249 -0.433524,0.16328 -0.06333,6.1e-4 -0.06475,-0.0129 -0.07647,-0.0429 -0.01244,-0.0318 -0.01142,-0.13399 0.03359,-0.29711 0.045,-0.16311 0.127846,-0.3649 0.228389,-0.56838 C 6.785329,10.36143 7.067764,9.9396 7.236338,9.7608 7.407614,9.57913 7.825209,9.4035 8.511592,9.32521 c 0.603024,-0.0688 1.303732,-0.0445 1.888594,0.0589 0.650433,0.11498 1.152017,0.057 1.493824,-0.0336 0.168615,-0.0447 0.24051,-0.0757 0.281606,-0.09301 0.516262,0.88407 1.014394,1.75242 1.524822,2.63988 z M 4.968984,9.62849 6.45609,9.92457 c -0.121233,0.18874 -0.241249,0.39627 -0.346716,0.60972 -0.110928,0.2245 -0.205042,0.44993 -0.263524,0.66191 -0.05848,0.21197 -0.08902,0.43273 -0.02119,0.61902 0.08939,0.24549 0.299893,0.39803 0.587505,0.39064 0.214419,-0.006 0.453682,-0.1 0.681547,-0.23253 0.389164,-0.22634 0.802087,-0.59346 1.119206,-0.98692 l 4.179193,2.39703 c 0.138768,0.0796 0.174872,0.25138 0.101793,0.3772 -0.07308,0.12583 -0.246123,0.18095 -0.384953,0.10128 -0.958203,-0.55278 -1.923564,-1.10136 -2.880688,-1.65193 -0.04588,-0.0275 -0.09386,-0.0384 -0.147264,-0.0351 -0.264708,0.0162 -0.342562,0.36433 -0.116261,0.49398 l 2.314368,1.32795 c 0.13884,0.0797 0.177876,0.24759 0.103343,0.37669 -0.07453,0.12909 -0.245605,0.18146 -0.384436,0.10179 -0.66172,-0.37826 -1.322848,-0.7575 -1.984187,-1.13677 -0.305895,-0.17603 -0.569936,0.28281 -0.264041,0.45884 0.53445,0.30634 1.068789,0.6126 1.603367,0.91872 0.140898,0.081 0.180849,0.24964 0.10541,0.3803 -0.07544,0.13066 -0.245606,0.18095 -0.384436,0.10127 C 9.633649,14.94467 9.192737,14.69244 8.751852,14.44016 8.443945,14.26225 8.182304,14.7265 8.488327,14.899 c 0.251009,0.14352 0.50734,0.2898 0.755954,0.43353 0.138833,0.0797 0.177106,0.25102 0.103343,0.3772 C 9.273864,15.8359 9.101503,15.89068 8.962672,15.811 8.74192,15.68496 8.521342,15.55859 8.300759,15.43225 L 8.107508,15.32116 C 8.147858,15.02912 8.013528,14.70031 7.709637,14.5249 7.572759,14.4463 7.424221,14.4102 7.275596,14.41639 7.251986,14.16427 7.108654,13.93021 6.873592,13.7953 6.736896,13.7169 6.588743,13.68056 6.440584,13.68679 6.416914,13.43371 6.273283,13.19863 6.038063,13.06364 5.683261,12.86002 5.233861,12.95424 4.988615,13.27394 4.927905,13.19864 4.855499,13.1372 4.766944,13.08637 4.45684,12.90841 4.08927,12.95725 3.835306,13.17057 L 3.190445,12.69003 Z m 10.032544,1.39668 c -0.146109,0 -0.264555,0.118442 -0.264559,0.26455 -2e-6,0.146112 0.118446,0.26456 0.264559,0.26456 0.146113,0 0.26456,-0.118448 0.264558,-0.26456 -4e-6,-0.146108 -0.118449,-0.26455 -0.264558,-0.26455 z M 1.973587,11.67571 c -0.1461086,0 -0.2645541,0.118442 -0.264558,0.26455 -1.6e-6,0.146112 0.1184455,0.26456 0.264558,0.26456 0.1461125,0 0.2645596,-0.118448 0.264558,-0.26456 -3.9e-6,-0.146108 -0.1184494,-0.26455 -0.264558,-0.26455 z m 3.798891,1.84568 c 0.132306,0.0764 0.182855,0.24444 0.103343,0.38133 l -0.655195,1.12644 c -0.07951,0.13689 -0.249587,0.17563 -0.381853,0.0997 -0.132266,-0.0759 -0.182855,-0.24185 -0.103343,-0.37875 0.218239,-0.37547 0.436281,-0.75105 0.654678,-1.12643 0.05963,-0.10268 0.1685,-0.1514 0.27696,-0.13691 0.03615,0.005 0.0707,0.01472 0.10541,0.03462 z m -1.271119,0.0228 c 0.13123,0.0758 0.182339,0.24186 0.102826,0.37875 -0.03616,0.0625 -0.07268,0.12471 -0.109027,0.18705 -0.07951,0.1369 -0.248102,0.17988 -0.382369,0.10283 -0.134267,-0.0771 -0.182855,-0.24444 -0.103343,-0.38134 l 0.10851,-0.18756 c 0.05964,-0.10267 0.175533,-0.1506 0.2841935,-0.135405 0.036219,0.005 0.0645,0.01568 0.099209,0.03568 z m 2.107164,0.70683 c 0.131596,0.0766 0.181822,0.24392 0.102309,0.38081 -0.145994,0.25027 -0.290988,0.50095 -0.436624,0.7513 -0.07951,0.1369 -0.248501,0.17729 -0.381853,0.10076 -0.133351,-0.0765 -0.181671,-0.24062 -0.103343,-0.3772 l 0.437142,-0.75285 5.29e-4,-5.3e-4 c 0.05971,-0.10223 0.1615,-0.1462 0.267652,-0.13899 0.036144,0.005 0.079484,0.0168 0.114188,0.0367 z m 0.728052,0.69445 c 0.03622,0.005 0.07277,0.0173 0.107477,0.0372 0.129857,0.075 0.182338,0.24186 0.102826,0.37875 l -0.217537,0.37514 c -0.07951,0.13689 -0.250289,0.1784 -0.382886,0.1023 C 6.813858,15.76276 6.763599,15.59442 6.843112,15.45753 L 7.060649,15.0824 c 0.05963,-0.10267 0.171399,-0.14905 0.275926,-0.13693 z"></path>
</svg>
