<svg class="cyws0 csz25 cchtt" viewBox="0 0 32 32" xmlns="http://www.w3.org/2000/svg">
                                    <path class="c4u31" d="M19 5.612V25a6 6 0 11-2-4.472V0h2v2.961A5.98 5.98 0 0023.497 5a8.476 8.476 0 018.444 9.474l-.253 2.13-1.469-1.563A6.472 6.472 0 0025.5 13c-1.842 0-3.634-.6-5.103-1.713l1.206-1.594A6.455 6.455 0 0025.5 11c1.557 0 3.068.428 4.376 1.217A6.475 6.475 0 0023.5 7 7.981 7.981 0 0119 5.612zM13 29a4 4 0 100-8 4 4 0 000 8zM0 5V3h14v2H0zm0 5V8h14v2H0zm0 5v-2h14v2H0z" fill-rule="nonzero"/>
                                </svg>