<svg class="cyws0 csz25 cchtt" viewBox="0 0 32 32" xmlns="http://www.w3.org/2000/svg">
                                    <path class="c4u31" d="M19 18.414l-4 4L9.586 17l.707-.707L12 14.586V8.414l-5-5L4.414 6l6.293 6.293-1.414 1.414L1.586 6 7 .586l7 7v5l8.463-8.463a3.828 3.828 0 115.414 5.414L21 16.414v6.172l5 5L28.586 25l-6.293-6.293 1.414-1.414L31.414 25 26 30.414l-7-7v-5zm-4 1.172L26.463 8.123a1.828 1.828 0 10-2.586-2.586L12.414 17 15 19.586zM11 30v2C4.925 32 0 27.075 0 21h2a9 9 0 009 9zm0-5v2a6 6 0 01-6-6h2a4 4 0 004 4z" fill-rule="nonzero"/>
                                </svg>