<svg class="cyws0 csz25 cchtt" viewBox="0 0 32 32" xmlns="http://www.w3.org/2000/svg">
                                    <path class="c4u31" d="M20.243 6.757l.707.707-1.414 1.414-.707-.707a4 4 0 00-5.658 0l-.707.707-1.414-1.414.707-.707a6 6 0 018.486 0zm3.535-3.535l.707.707-1.414 1.414-.707-.707a9 9 0 00-12.728 0l-.707.707L7.515 3.93l.707-.707c4.296-4.296 11.26-4.296 15.556 0zM9 17.212V16a7 7 0 00-7-7H1V7h1a9 9 0 019 9v.788l2.302 5.18L11 23.117V24a4 4 0 01-4 4H5v3H3v-5h4a2 2 0 002-2v-2.118l1.698-.85L9 17.213zm12-.424V16a9 9 0 019-9h1v2h-1a7 7 0 00-7 7v1.212l-1.698 3.82 1.698.85V24a2 2 0 002 2h4v5h-2v-3h-2a4 4 0 01-4-4v-.882l-2.302-1.15L21 16.787zM16 12a1 1 0 110-2 1 1 0 010 2z" fill-rule="nonzero"/>
                                </svg>