<svg width="2015" height="1790" viewBox="0 0 2015 1790" fill="none" xmlns="http://www.w3.org/2000/svg">
<path opacity="0.2" fill-rule="evenodd" clip-rule="evenodd" d="M1923.54 0.0645752H1903.41V80.5978H1722.21V0.0645752H1702.07V80.5978H1520.87V0.0645752H1500.74V80.5978H1319.54V0.0645752H1299.41V80.5978H1118.21V0.0645752H1098.07V80.5978H916.875V0.0645752H896.742V80.5978H715.542V0.0645752H695.409V80.5978H514.209V0.0645752H494.076V80.5978H312.876V0.0645752H292.742V80.5978H111.543V0.0645752H91.4092V80.5978H0.809326V98.4941H91.4092V259.561H0.809326V277.457H91.4092V438.523H0.809326V456.42H91.4092V617.486H0.809326V635.382H91.4092V796.449H0.809326V814.345H91.4092V975.412H0.809326V993.308H91.4092V1154.37H0.809326V1172.27H91.4092V1333.34H0.809326V1351.23H91.4092V1512.3H0.809326V1530.2H91.4092V1691.26H0.809326V1709.16H91.4092V1789.69H111.543V1709.16H292.742V1789.69H312.876V1709.16H494.076V1789.69H514.209V1709.16H695.409V1789.69H715.542V1709.16H896.742V1789.69H916.875V1709.16H1098.07V1789.69H1118.21V1709.16H1299.41V1789.69H1319.54V1709.16H1500.74V1789.69H1520.87V1709.16H1702.07V1789.69H1722.21V1709.16H1903.41V1789.69H1923.54V1709.16H2014.14V1691.26H1923.54V1530.2H2014.14V1512.3H1923.54V1351.23H2014.14V1333.34H1923.54V1172.27H2014.14V1154.37H1923.54V993.308H2014.14V975.412H1923.54V814.345H2014.14V796.449H1923.54V635.382H2014.14V617.486H1923.54V456.42H2014.14V438.523H1923.54V277.457H2014.14V259.561H1923.54V98.4941H2014.14V80.5978H1923.54V0.0645752ZM1722.21 259.561H1903.41V98.4941H1722.21V259.561ZM1722.21 438.523H1903.41V277.457H1722.21V438.523ZM1722.21 617.486H1903.41V456.42H1722.21V617.486ZM1722.21 796.449H1903.41V635.382H1722.21V796.449ZM1722.21 975.412H1903.41V814.345H1722.21V975.412ZM1722.21 1154.37H1903.41V993.308H1722.21V1154.37ZM1722.21 1333.34H1903.41V1172.27H1722.21V1333.34ZM1722.21 1512.3H1903.41V1351.23H1722.21V1512.3ZM1722.21 1691.26H1903.41V1530.2H1722.21V1691.26ZM292.742 1530.2H111.543V1691.26H292.742V1530.2ZM292.742 1351.23H111.543V1512.3H292.742V1351.23ZM292.742 1172.27H111.543V1333.34H292.742V1172.27ZM292.742 993.308H111.543V1154.37H292.742V993.308ZM292.742 814.345H111.543V975.412H292.742V814.345ZM292.742 635.382H111.543V796.449H292.742V635.382ZM292.742 456.42H111.543V617.486H292.742V456.42ZM292.742 277.457H111.543V438.523H292.742V277.457ZM292.742 98.4941H111.543V259.561H292.742V98.4941ZM1520.87 259.561H1702.07V98.4941H1520.87V259.561ZM1520.87 438.523H1702.07V277.457H1520.87V438.523ZM1520.87 617.486H1702.07V456.42H1520.87V617.486ZM1520.87 796.449H1702.07V635.382H1520.87V796.449ZM1520.87 975.412H1702.07V814.345H1520.87V975.412ZM1520.87 1154.37H1702.07V993.308H1520.87V1154.37ZM1520.87 1333.34H1702.07V1172.27H1520.87V1333.34ZM1520.87 1512.3H1702.07V1351.23H1520.87V1512.3ZM494.076 1351.23H312.876V1512.3H494.076V1351.23ZM494.076 1172.27H312.876V1333.34H494.076V1172.27ZM494.076 993.308H312.876V1154.37H494.076V993.308ZM494.076 814.345H312.876V975.412H494.076V814.345ZM494.076 635.382H312.876V796.449H494.076V635.382ZM494.076 456.42H312.876V617.486H494.076V456.42ZM494.076 277.457H312.876V438.523H494.076V277.457ZM1319.54 438.523H1500.74V277.457H1319.54V438.523ZM1319.54 617.486H1500.74V456.42H1319.54V617.486ZM1319.54 796.449H1500.74V635.382H1319.54V796.449ZM1319.54 975.412H1500.74V814.345H1319.54V975.412ZM1319.54 1154.37H1500.74V993.308H1319.54V1154.37ZM1319.54 1333.34H1500.74V1172.27H1319.54V1333.34ZM695.409 1172.27H514.209V1333.34H695.409V1172.27ZM695.409 993.308H514.209V1154.37H695.409V993.308ZM695.409 814.345H514.209V975.412H695.409V814.345ZM695.409 635.382H514.209V796.449H695.409V635.382ZM695.409 456.42H514.209V617.486H695.409V456.42ZM1118.21 617.486H1299.41V456.42H1118.21V617.486ZM1118.21 796.449H1299.41V635.382H1118.21V796.449ZM1118.21 975.412H1299.41V814.345H1118.21V975.412ZM1118.21 1154.37H1299.41V993.308H1118.21V1154.37ZM896.742 993.308H715.542V1154.37H896.742V993.308ZM896.742 814.345H715.542V975.412H896.742V814.345ZM896.742 635.382H715.542V796.449H896.742V635.382ZM916.875 796.449H1098.07V635.382H916.875V796.449ZM916.875 975.412H1098.07V814.345H916.875V975.412ZM1098.07 993.308H916.875V1154.37H1098.07V993.308ZM916.875 617.486H1098.07V456.42H916.875V617.486ZM715.542 617.486H896.742V456.42H715.542V617.486ZM896.742 1172.27H715.542V1333.34H896.742V1172.27ZM1098.07 1172.27H916.875V1333.34H1098.07V1172.27ZM1299.41 1172.27H1118.21V1333.34H1299.41V1172.27ZM1118.21 438.523H1299.41V277.457H1118.21V438.523ZM916.875 438.523H1098.07V277.457H916.875V438.523ZM715.542 438.523H896.742V277.457H715.542V438.523ZM514.209 438.523H695.409V277.457H514.209V438.523ZM695.409 1351.23H514.209V1512.3H695.409V1351.23ZM896.742 1351.23H715.542V1512.3H896.742V1351.23ZM1098.07 1351.23H916.875V1512.3H1098.07V1351.23ZM1299.41 1351.23H1118.21V1512.3H1299.41V1351.23ZM1500.74 1351.23H1319.54V1512.3H1500.74V1351.23ZM1319.54 259.561H1500.74V98.4941H1319.54V259.561ZM1118.21 259.561H1299.41V98.4941H1118.21V259.561ZM916.875 259.561H1098.07V98.4941H916.875V259.561ZM715.542 259.561H896.742V98.4941H715.542V259.561ZM514.209 259.561H695.409V98.4941H514.209V259.561ZM312.876 259.561H494.076V98.4941H312.876V259.561ZM494.076 1530.2H312.876V1691.26H494.076V1530.2ZM695.409 1530.2H514.209V1691.26H695.409V1530.2ZM896.742 1530.2H715.542V1691.26H896.742V1530.2ZM1098.07 1530.2H916.875V1691.26H1098.07V1530.2ZM1299.41 1530.2H1118.21V1691.26H1299.41V1530.2ZM1500.74 1530.2H1319.54V1691.26H1500.74V1530.2ZM1702.07 1530.2H1520.87V1691.26H1702.07V1530.2Z" fill="url(#paint0_radial_503_5)"/>
<defs>
<radialGradient id="paint0_radial_503_5" cx="0" cy="0" r="1" gradientUnits="userSpaceOnUse" gradientTransform="translate(1007.47 894.878) rotate(90) scale(894.814 1006.67)">
<stop stop-color="white"/>
<stop offset="1" stop-color="white" stop-opacity="0"/>
<stop offset="1" stop-opacity="0"/>
</radialGradient>
</defs>
</svg>
