<svg width="2777" height="4843" viewBox="0 0 2777 4843" fill="none" xmlns="http://www.w3.org/2000/svg">
<g opacity="0.27" clip-path="url(#clip0_508_1916)">
<path d="M560.395 6508.44C253.386 6508.44 -73.1056 6479.02 -415.645 6420.37C-976.538 6324.32 -1555.99 6153.55 -2138.01 5912.82C-2720.03 5672.1 -3269.71 5375.85 -3771.86 5032.32C-4256.96 4700.46 -4677.47 4338.55 -5021.75 3956.79C-5366.23 3574.83 -5617.06 3192.11 -5767.3 2819.35C-5923.11 2432.67 -5963.42 2073.63 -5887.14 1752.11C-5810.86 1430.6 -5622.57 1166.07 -5327.5 965.933C-5042.97 772.946 -4671.57 647.606 -4223.65 593.36C-3775.88 539.178 -3274.15 558.771 -2732.35 651.563C-2171.46 747.673 -1592.01 918.388 -1009.99 1159.11C-427.972 1399.83 121.707 1696.08 623.866 2039.61C1108.96 2371.47 1529.47 2733.39 1873.75 3115.15C2218.23 3497.1 2469.06 3879.82 2619.31 4252.58C2775.11 4639.2 2815.42 4998.24 2739.14 5319.76C2662.86 5641.27 2474.58 5905.8 2179.51 6105.94C1894.97 6298.92 1523.58 6424.26 1075.65 6478.51C910.959 6498.42 738.964 6508.38 560.346 6508.38L560.395 6508.44ZM-3705.2 573.066C-3884.16 573.066 -4057.12 583.022 -4222.98 603.061C-4669.98 657.179 -5040.46 782.199 -5324.12 974.612C-5617.35 1173.53 -5804.38 1436.08 -5880.08 1755.05C-5955.78 2074.01 -5915.61 2430.5 -5760.78 2814.75C-5610.97 3186.43 -5360.71 3568.2 -5017.01 3949.32C-4309.7 4733.58 -3286.48 5427.61 -2135.79 5903.5C-985.094 6379.4 155.158 6580.17 1075.03 6468.87C1522.03 6414.75 1892.51 6289.73 2176.17 6097.32C2469.4 5898.4 2656.43 5635.85 2732.13 5316.89C2807.83 4997.92 2767.66 4641.43 2612.83 4257.18C2463.02 3885.5 2212.76 3503.74 1869.06 3122.61C1161.75 2338.35 138.529 1644.32 -1012.16 1168.43C-1955.38 778.306 -2891.64 573.066 -3705.2 573.066Z" fill="white"/>
<path d="M124.22 6521.02C-105.734 6521.02 -345.309 6503.21 -593.053 6467.66C-1123.64 6391.46 -1668.48 6236.64 -2212.5 6007.4C-2985.46 5681.68 -3701.19 5226.14 -4282.34 4690.06C-4848.45 4167.84 -5262.24 3593.73 -5479.05 3029.63C-5565.14 2805.7 -5619.14 2584.88 -5639.54 2373.39C-5660.52 2155.77 -5646.07 1946.25 -5596.57 1750.78C-5509.02 1405.01 -5317.3 1114.63 -5026.78 887.823C-4746.5 668.989 -4386.46 518.122 -3956.67 439.498C-3527.07 360.874 -3049.37 358.321 -2536.82 431.903C-2006.23 508.103 -1461.39 662.926 -917.368 892.226C-144.407 1217.96 571.32 1673.49 1152.47 2209.57C1718.53 2731.79 2132.37 3305.9 2349.18 3869.93C2435.27 4093.87 2489.27 4314.68 2509.67 4526.18C2530.65 4743.8 2516.2 4953.31 2466.7 5148.79C2379.15 5494.56 2187.43 5784.93 1896.91 6011.74C1616.63 6230.58 1256.59 6381.44 826.799 6460.07C604.868 6500.66 370.031 6521.02 124.22 6521.02ZM-3249.74 387.933C-3495.5 387.933 -3731.79 408.163 -3955.65 449.134C-4837.09 610.468 -5417.37 1073.85 -5589.56 1753.9C-5687.49 2140.64 -5648.1 2568.35 -5472.48 3025.23C-5256.2 3587.85 -4843.18 4160.75 -4278.08 4682.02C-3697.52 5217.59 -2982.47 5672.61 -2210.23 5998.02C-1134.8 6451.2 -56.5717 6611.83 825.784 6450.37C1707.22 6289.04 2287.5 5825.65 2459.69 5145.6C2557.62 4758.86 2518.23 4331.15 2342.61 3874.27C2126.33 3311.65 1713.31 2738.75 1148.21 2217.48C567.647 1681.92 -147.403 1226.89 -919.64 901.48C-1722.28 563.242 -2526.57 387.933 -3249.74 387.933Z" fill="white"/>
<path d="M-282.321 6543.09C-441.216 6543.09 -604.074 6533.78 -770.51 6515.01C-1270.74 6458.73 -1781.02 6319.79 -2287.04 6101.98C-2967.38 5809.18 -3597.79 5388.11 -4110.1 4884.26C-4607.96 4394.65 -4981.05 3841.59 -5189.15 3284.84C-5288.11 3020.06 -5348.77 2756.74 -5369.41 2502.3C-5390.68 2239.94 -5369.37 1986.65 -5306.04 1749.56C-5207.23 1379.48 -5012.08 1063.32 -4726.05 809.77C-4450.03 565.09 -4101.35 388.76 -3689.73 285.629C-3278.26 182.562 -2824.64 157.865 -2341.38 212.238C-1841.15 268.526 -1330.87 407.459 -824.845 625.271C-144.503 918.07 485.904 1339.14 998.214 1842.99C1496.07 2332.61 1869.16 2885.66 2077.27 3442.41C2176.22 3707.19 2236.89 3970.51 2257.53 4224.95C2278.8 4487.31 2257.48 4740.61 2194.15 4977.69C2095.35 5347.77 1900.2 5663.93 1614.17 5917.48C1338.14 6162.16 989.464 6338.49 577.847 6441.62C308.06 6509.21 20.144 6543.09 -282.321 6543.09ZM-2824.97 193.348C-3126.38 193.348 -3416.18 227.044 -3688.33 295.202C-4532.5 506.633 -5104.56 1024.26 -5299.08 1752.82C-5422.98 2216.84 -5382.71 2745.13 -5182.58 3280.57C-4752.64 4430.96 -3642.26 5508.53 -2284.82 6092.73C-1606.8 6384.57 -921.332 6533.9 -286.914 6533.9C14.4883 6533.9 304.289 6500.21 576.444 6432.05C1420.61 6220.62 1992.67 5702.99 2187.19 4974.44C2311.09 4510.41 2270.82 3982.12 2070.69 3446.69C1640.75 2296.29 530.376 1218.72 -827.068 634.525C-1505.09 342.683 -2190.56 193.348 -2824.97 193.348Z" fill="white"/>
<path d="M-659.087 6573.66C-754.221 6573.66 -850.466 6569.9 -947.969 6562.37C-1417.93 6525.99 -1893.55 6402.95 -2361.63 6196.56C-2661.73 6064.26 -2950.66 5900.63 -3220.4 5710.2C-3482.11 5525.44 -3726.09 5315.29 -3945.5 5085.54C-4377.47 4633.26 -4709.47 4109.31 -4905.54 3570.3C-5134.53 2940.79 -5172.57 2310.78 -5015.56 1748.22C-4905.49 1353.88 -4706.91 1011.82 -4425.38 731.59C-4153.56 461.064 -3816.29 259.206 -3422.85 131.696C-3029.55 4.1871 -2599.95 -42.6556 -2145.99 -7.49166C-1676.02 28.8849 -1200.4 151.927 -732.322 358.316C-432.226 490.611 -143.295 654.242 126.443 844.676C388.158 1029.43 632.082 1239.59 851.548 1469.33C1283.52 1921.61 1615.52 2445.56 1811.59 2984.57C2040.57 3614.08 2078.62 4244.1 1921.61 4806.65C1811.54 5200.99 1612.96 5543.06 1331.42 5823.28C1059.6 6093.81 722.334 6295.67 328.893 6423.18C20.0463 6523.31 -311.23 6573.66 -659.087 6573.66ZM-2431.24 -9.7892C-2776.25 -9.7892 -3109.55 40.2445 -3421.01 141.269C-4227.91 402.861 -4791.7 974.739 -5008.6 1751.66C-5164.94 2311.67 -5126.99 2939.14 -4898.87 3566.15C-4491.46 4686.04 -3542.1 5665.91 -2359.31 6187.3C-1434.42 6595.04 -480.325 6675.39 327.103 6413.67C1134 6152.08 1697.79 5580.2 1914.7 4803.27C2071.03 4243.27 2033.08 3615.8 1804.96 2988.79C1397.55 1868.9 448.196 889.03 -734.595 367.633C-1302.74 117.21 -1881.86 -9.7253 -2431.24 -9.7253V-9.7892Z" fill="white"/>
<path d="M-1006.46 6611.96C-1045.91 6611.96 -1085.54 6611.19 -1125.38 6609.72C-1565.03 6593.26 -2006.04 6486.1 -2436.17 6291.2C-2692.86 6174.93 -2939.64 6029.42 -3169.64 5858.77C-3393.12 5693.03 -3601.9 5502.73 -3790.18 5293.15C-4159.21 4882.47 -4449.84 4395.54 -4630.73 3884.93C-4755.73 3532.01 -4828.1 3172.14 -4845.79 2815.33C-4864.11 2446.27 -4823.46 2086.84 -4724.99 1747.01C-4603.66 1328.36 -4401.64 960.51 -4124.55 653.543C-3856.99 357.17 -3531.08 129.849 -3155.86 -22.1031C-2780.69 -174.055 -2375.17 -242.979 -1950.5 -227.152C-1510.84 -210.687 -1069.83 -103.536 -639.701 91.3661C-383.014 207.643 -136.237 353.149 93.7661 523.8C317.243 689.537 526.025 879.843 714.311 1089.42C1083.34 1500.09 1373.96 1987.03 1554.85 2497.64C1679.86 2850.56 1752.23 3210.43 1769.92 3567.24C1788.24 3936.3 1747.58 4295.79 1649.12 4635.56C1527.78 5054.21 1325.77 5422.06 1048.68 5729.03C781.117 6025.4 455.207 6252.72 79.9888 6404.67C-259.988 6542.39 -624.91 6611.96 -1006.46 6611.96ZM-2067.96 -220.515C-2444.39 -220.515 -2811.05 -151.463 -3153.64 -12.7219C-3923.27 298.968 -4478.84 925.218 -4718.08 1750.52C-4912.5 2421.44 -4879.97 3158.03 -4624.01 3880.84C-4246.32 4947.25 -3447.98 5822.46 -2433.76 6282.01C-1584.13 6667.03 -692.151 6707.3 77.8618 6395.42C847.488 6083.73 1403.06 5457.48 1642.3 4632.18C1836.72 3961.25 1804.19 3224.66 1548.23 2501.85C1170.55 1435.45 372.255 560.24 -642.022 100.684C-1113.63 -112.981 -1598.39 -220.515 -2067.96 -220.515Z" fill="white"/>
<path d="M-1325.22 6657.14C-1726.97 6657.14 -2125.68 6565.88 -2510.71 6385.78C-2939.54 6185.2 -3321.67 5888.95 -3646.47 5505.41C-3802.17 5321.54 -3942.7 5118.86 -4064.13 4903.15C-4184.64 4688.98 -4286.93 4460.95 -4368.14 4225.27C-4504.9 3828.51 -4581.03 3416.37 -4594.57 3000.28C-4608.54 2569.56 -4554.69 2147.47 -4434.42 1745.8C-4301.82 1302.83 -4096.37 909.135 -3823.73 575.492C-3560.42 253.337 -3245.92 0.551727 -2888.88 -175.906C-2531.89 -352.301 -2150.38 -443.433 -1755.01 -446.752C-1345.76 -450.134 -939.267 -358.938 -547.082 -175.46C-118.255 25.1218 263.876 321.367 588.674 704.916C744.379 888.777 884.904 1091.46 1006.33 1307.17C1126.85 1521.35 1229.14 1749.37 1310.35 1985.05C1447.1 2381.81 1523.24 2793.95 1536.77 3210.05C1550.74 3640.76 1496.89 4062.85 1376.62 4464.53C1244.02 4907.49 1038.58 5301.19 765.938 5634.83C502.628 5956.99 188.126 6209.77 -168.915 6386.23C-525.909 6562.62 -907.41 6653.76 -1302.83 6657.07C-1310.33 6657.07 -1317.82 6657.14 -1325.31 6657.14H-1325.22ZM-1730.02 -436.158C-2928.33 -436.158 -4019.85 387.355 -4427.55 1749.43C-4663.07 2536.25 -4639.57 3414.14 -4361.42 4221.31C-4025.02 5197.48 -3349.56 5983.09 -2508.25 6376.66C-909.876 7124.35 829.844 6264.97 1369.81 4461.02C1605.32 3674.2 1581.83 2796.31 1303.68 1989.14C967.276 1012.97 291.816 227.362 -549.499 -166.206C-941.103 -349.365 -1341.22 -436.094 -1730.02 -436.094V-436.158Z" fill="white"/>
<path d="M-1614.68 6708.52C-1947.16 6708.52 -2273.02 6632 -2585.3 6480.36C-2936.74 6309.71 -3250.13 6053.93 -3516.77 5720.09C-3774.33 5397.68 -3977.94 5016.05 -4121.99 4585.79C-4268.37 4148.63 -4345.81 3683.52 -4352.29 3203.41C-4359.01 2706.33 -4288.86 2215.5 -4143.89 1744.52C-4000.03 1277.24 -3791.15 857.701 -3522.96 497.382C-3263.95 149.443 -2960.81 -128.869 -2621.99 -329.706C-2283.18 -530.543 -1925.75 -643.82 -1559.62 -666.412C-1180.53 -689.77 -808.749 -614.464 -454.462 -442.409C-103.028 -271.759 210.362 -15.9741 477.007 317.86C734.564 640.271 938.174 1021.91 1082.23 1452.17C1228.55 1889.33 1306.04 2354.44 1312.52 2834.54C1319.24 3331.62 1249.1 3822.45 1104.13 4293.43C960.266 4760.71 751.387 5180.25 483.195 5540.57C224.139 5888.51 -78.9547 6166.82 -417.772 6367.66C-756.589 6568.5 -1114.02 6681.77 -1480.15 6704.37C-1525.06 6707.11 -1569.96 6708.52 -1614.68 6708.52ZM-1423.73 -659.966C-2573.56 -659.966 -3679.63 262.211 -4137.08 1748.22C-4423.4 2678.25 -4415.61 3684.6 -4115.27 4581.89C-3820.06 5463.67 -3275.8 6134.66 -2582.79 6471.24C-2266.11 6625.04 -1939.28 6697.98 -1616.03 6697.98C-466.209 6697.98 639.866 5775.81 1097.31 4289.79C1383.63 3359.77 1375.85 2353.41 1075.46 1456.13C780.246 574.347 235.983 -96.6407 -457.024 -433.219C-773.702 -587.022 -1100.48 -659.966 -1423.73 -659.966Z" fill="white"/>
<path d="M-1876.78 6765.38C-2147.77 6765.38 -2410.31 6701.62 -2659.84 6574.94C-2940.27 6432.56 -3190.48 6217.05 -3403.56 5934.46C-3609.39 5661.44 -3775.34 5333.1 -3896.78 4958.61C-4209.54 3994.06 -4193.73 2822.16 -3853.32 1743.31C-3698.24 1251.71 -3485.83 806.26 -3222.09 419.329C-2967.34 45.5442 -2675.6 -258.168 -2354.96 -483.447C-2034.32 -708.726 -1700.92 -844.213 -1364.08 -886.078C-1015.31 -929.411 -678.036 -869.932 -361.745 -709.365C-81.3232 -566.986 168.886 -351.471 381.971 -68.8823C587.804 204.133 753.755 532.479 875.186 906.966C1187.95 1871.52 1172.09 3043.42 831.729 4122.27C676.653 4613.86 464.246 5059.32 200.5 5446.25C-54.2527 5820.03 -345.986 6123.74 -666.579 6349.02C-987.221 6574.3 -1320.62 6709.79 -1657.46 6751.65C-1731.08 6760.78 -1804.22 6765.38 -1876.78 6765.38ZM-1143.99 -889.205C-2228.89 -889.205 -3338.25 136.102 -3846.55 1747.07C-4186.14 2823.5 -4202 3992.65 -3890.01 4954.78C-3643.42 5715.24 -3205.61 6287.44 -2657.19 6565.88C-2404.95 6693.96 -2141.93 6754.84 -1877.65 6754.84C-792.747 6754.97 316.614 5729.54 824.913 4118.63C1164.5 3042.2 1180.36 1873.05 868.371 910.923C621.787 150.462 183.968 -421.735 -364.452 -700.175C-616.692 -828.258 -879.712 -889.205 -1143.99 -889.205Z" fill="white"/>
<path d="M-2113.94 6827.09C-2330.84 6827.09 -2538.6 6774.44 -2734.43 6669.46C-3163.07 6439.71 -3496.08 5977.85 -3697.42 5333.73C-3849.84 4846.03 -3920.07 4265.86 -3900.5 3655.95C-3890.54 3345.21 -3857.47 3027.08 -3802.27 2710.41C-3745.42 2384.3 -3664.89 2058.51 -3562.84 1742.03C-3396.5 1226.12 -3180.66 754.822 -2921.36 341.215C-2670.86 -58.3529 -2390.54 -387.529 -2088.17 -637.187C-1785.7 -886.972 -1476.42 -1044.54 -1168.88 -1105.68C-850.368 -1168.99 -547.661 -1125.4 -269.269 -976.254C159.364 -746.571 492.38 -284.653 693.718 359.467C846.135 847.168 916.373 1427.34 896.795 2037.25C886.837 2347.99 853.773 2666.12 798.568 2982.79C741.72 3308.9 661.185 3634.7 559.139 3951.17C392.799 4467.08 176.96 4938.38 -82.3373 5351.99C-332.837 5751.55 -613.162 6080.73 -915.531 6330.39C-1218 6580.17 -1527.28 6737.74 -1834.82 6798.88C-1929.32 6817.64 -2022.43 6827.09 -2113.94 6827.09ZM-892.811 -1124.63C-1278.71 -1124.63 -1686.27 -957.428 -2084.16 -628.89C-2704.7 -116.492 -3227.41 726.87 -3555.98 1745.92C-3954.98 2983.3 -4005.25 4323.17 -3690.51 5330.1C-3489.94 5971.73 -3158.33 6431.79 -2731.58 6660.52C-2183.11 6954.47 -1539.51 6834.3 -919.35 6322.28C-298.805 5809.88 223.898 4966.52 552.468 3947.47C951.468 2710.09 1001.74 1370.22 686.999 363.296C486.435 -278.335 154.82 -738.403 -271.928 -967.128C-468.48 -1072.43 -677.261 -1124.63 -892.811 -1124.63Z" fill="white"/>
<path d="M-2328.23 6893.21C-2498.05 6893.21 -2658.88 6850.13 -2808.97 6764.1C-3049.47 6626.31 -3247.9 6386.61 -3398.68 6051.69C-3544.23 5728.52 -3639.51 5330.67 -3681.95 4869.27C-3724.34 4408.05 -3711.82 3906.56 -3644.63 3378.59C-3575.12 2832.12 -3449.82 2281.11 -3272.17 1740.88C-3094.57 1200.66 -2875.25 703.514 -2620.4 263.23C-2374.15 -162.12 -2105.23 -516.695 -1821.09 -790.796C-1536.8 -1065.02 -1251.59 -1244.8 -973.394 -1325.15C-685.093 -1408.43 -416.997 -1380.8 -176.456 -1243.01C64.0371 -1105.23 262.474 -865.527 413.247 -530.608C558.8 -207.431 654.078 190.413 696.521 651.821C738.916 1113.04 726.396 1614.59 659.203 2142.49C589.69 2688.97 464.392 3239.98 286.741 3780.27C109.139 4320.49 -110.181 4817.64 -365.031 5257.92C-611.277 5683.27 -880.194 6037.84 -1164.34 6311.95C-1448.63 6586.17 -1733.84 6765.95 -2012.03 6846.3C-2120.41 6877.57 -2225.99 6893.21 -2328.23 6893.21ZM-659.859 -1362.86C-1022.27 -1362.86 -1419.24 -1166.49 -1816.79 -783.01C-2400.06 -220.386 -2914.55 677.285 -3265.45 1744.71C-3616.4 2812.14 -3761.71 3921.37 -3674.65 4868.05C-3587.69 5813.84 -3279.18 6484 -2806.02 6755.1C-2332.87 7026.27 -1751.38 6866.02 -1168.69 6303.97C-585.415 5741.34 -70.929 4843.67 279.973 3776.25C630.876 2708.82 776.235 1599.59 689.174 652.906C602.21 -292.884 293.702 -963.042 -179.453 -1234.14C-329.792 -1320.3 -491.103 -1362.86 -659.859 -1362.86Z" fill="white"/>
</g>
<defs>
<clipPath id="clip0_508_1916">
<rect width="8701.26" height="8265.39" fill="white" transform="translate(-5924.6 -1372.18)"/>
</clipPath>
</defs>
</svg>
